<?xml version="1.0" encoding="utf-8"?>
<!-- Generator: Adobe Illustrator 15.1.0, SVG Export Plug-In . SVG Version: 6.00 Build 0)  -->
<!DOCTYPE svg PUBLIC "-//W3C//DTD SVG 1.1//EN" "http://www.w3.org/Graphics/SVG/1.1/DTD/svg11.dtd">
<svg version="1.1" id="Layer_1" xmlns="http://www.w3.org/2000/svg" xmlns:xlink="http://www.w3.org/1999/xlink" x="0px" y="0px"
	 width="1434.979px" height="947px" viewBox="0 0 1434.979 947" enable-background="new 0 0 1434.979 947" xml:space="preserve">
<!--<rect fill="#FFFFFF" width="1434.979" height="947"/>-->
<path fill="#8F1F1D" d="M712.827,368.579c-131.633,0-251.228,15.825-339.77,41.615v220.298
	c88.542,25.79,208.137,41.614,339.77,41.614c150.657,0,285.535-20.729,376.134-53.402V421.986
	C998.361,389.311,863.483,368.579,712.827,368.579"/>
<path fill="#8F1F1D" d="M1094.847,567.972c-3.856-10.663-4.629-24.154-1.36-37.162c5.85-23.289,22.421-36.198,37.013-28.833
	c3.618,1.827,6.773,4.73,9.387,8.418c0.239-0.001,0.479,0,0.715,0.016c0,0,44.552,53.106,3.313,116.003
	c-0.896,3.569-76.534,91.718-94.043,94.524C1038.411,722.773,1064.762,630.939,1094.847,567.972"/>
<path fill="#8F1F1D" d="M363.903,557.551c5.3-9.631,7.158-22.788,4.217-36.426c-5.266-24.416-23.91-41.109-41.642-37.285
	c-4.398,0.948-8.325,3.072-11.666,6.099c-0.282-0.059-0.564-0.113-0.845-0.153c0,0-56.292,41.952-12.057,113.924
	c0.805,3.741,83.851,108.838,104.311,115.764C419.612,724.004,394.974,626.947,363.903,557.551"/>
<path fill="#E23A26" d="M284.891,563.596l0.007,0.015C285.083,563.755,285.255,563.887,284.891,563.596"/>
<path fill="#E33B26" d="M1180.543,488.433c-0.88-3.064-1.756-6.126-2.662-9.162l30.683-44.451c3.13-4.522,3.771-10.398,1.73-15.555
	c-2.04-5.13-6.49-8.81-11.76-9.71l-51.887-8.805c-2.008-4.102-4.115-8.142-6.229-12.15l21.797-49.903
	c2.243-5.087,1.769-10.995-1.203-15.608c-2.961-4.636-7.99-7.344-13.349-7.133l-52.656,1.913c-2.727-3.55-5.496-7.068-8.322-10.521
	l12.102-53.49c1.225-5.433-0.322-11.118-4.104-15.064c-3.762-3.932-9.229-5.559-14.426-4.283l-51.289,12.608
	c-3.321-2.935-6.699-5.833-10.114-8.673l1.849-54.914c0.197-5.559-2.394-10.842-6.845-13.925
	c-4.445-3.104-10.093-3.573-14.955-1.266l-47.848,22.747c-3.854-2.21-7.728-4.4-11.644-6.517l-8.455-54.115
	c-0.857-5.483-4.386-10.139-9.326-12.266c-4.923-2.137-10.568-1.447-14.891,1.808l-42.659,32.007
	c-4.2-1.395-8.419-2.732-12.692-4.011l-18.386-51.316c-1.87-5.229-6.182-9.071-11.438-10.151c-5.238-1.072-10.63,0.742-14.263,4.802
	l-35.907,40.171c-4.342-0.5-8.685-0.956-13.043-1.331l-27.723-46.713c-2.811-4.732-7.771-7.612-13.116-7.612
	c-5.334,0-10.304,2.88-13.09,7.612l-27.733,46.713c-4.358,0.375-8.722,0.831-13.056,1.331l-35.91-40.171
	c-3.636-4.06-9.047-5.874-14.268-4.802c-5.255,1.092-9.573,4.922-11.433,10.151l-18.402,51.316
	c-4.26,1.279-8.481,2.627-12.691,4.011l-42.644-32.007c-4.336-3.266-9.98-3.955-14.916-1.808c-4.919,2.127-8.461,6.783-9.313,12.266
	l-8.461,54.115c-3.914,2.117-7.789,4.294-11.653,6.517L436.1,168.34c-4.858-2.316-10.529-1.838-14.954,1.266
	c-4.445,3.083-7.042,8.366-6.84,13.925l1.835,54.914c-3.405,2.84-6.774,5.738-10.112,8.673L354.75,234.51
	c-5.211-1.265-10.67,0.351-14.441,4.283c-3.795,3.946-5.332,9.631-4.113,15.064l12.079,53.49c-2.802,3.467-5.575,6.971-8.293,10.521
	l-52.655-1.913c-5.314-0.157-10.386,2.497-13.356,7.133c-2.974,4.613-3.425,10.521-1.211,15.608l21.814,49.903
	c-2.119,4.008-4.224,8.048-6.249,12.15l-51.882,8.805c-5.271,0.888-9.715,4.566-11.765,9.71c-2.037,5.157-1.375,11.033,1.735,15.555
	l30.69,44.451c-0.236,0.784-0.455,1.576-0.69,2.364l-16.863,17.911l45.341,64.05c0,0,435.152,200.731,838.797,3.396
	C1169.796,558.719,1180.543,488.433,1180.543,488.433"/>
<path d="M795.716,446.557c0,0,48.162-52.734,96.324,0c0,0,37.844,70.318,0,105.473c0,0-61.922,49.223-96.324,0
	C795.716,552.029,754.434,513.354,795.716,446.557"/>
<path fill="#FFFFFF" d="M855.154,481.097c0,19.782-11.66,35.82-26.041,35.82c-14.379,0-26.04-16.038-26.04-35.82
	c0-19.782,11.661-35.821,26.04-35.821C843.494,445.275,855.154,461.315,855.154,481.097"/>
<path d="M578.401,430.129c0,0,84.436-37.385,107.481,46.059c0,0,24.141,97.261-69.339,102.751
	C616.543,578.939,497.34,555.98,578.401,430.129"/>
<rect x="187.424" y="75.529" fill="none" width="1060" height="782"/>
<path fill="#FFFFFF" d="M627.514,481.096c0,20.579-12.13,37.27-27.095,37.27c-14.959,0-27.092-16.69-27.092-37.27
	c0-20.583,12.133-37.27,27.092-37.27C615.384,443.826,627.514,460.513,627.514,481.096"/>
<path fill="#E33B26" d="M299.026,574.745c10.967-12.463,37.611-27.557,35.57-46.282c-3.653-33.526-31.456-57.999-62.099-54.658
	c-7.599,0.827-14.658,3.292-20.923,7.035c-0.463-0.106-0.925-0.211-1.388-0.294c0,0-103.632,50.873-44.564,152.657
	c0.557,5.137,117.847,155.668,150.787,167.131C377.968,807.836,336.498,671.694,299.026,574.745"/>
<path fill="#E33B26" d="M1140.973,570.202c-12.692-10.7-46.162-20.418-46.92-39.238c-1.355-33.697,22.512-62.021,53.312-63.26
	c7.638-0.308,14.983,1.083,21.734,3.857c0.442-0.174,0.884-0.347,1.329-0.497c0,0,110.025,34.951,66.695,144.366
	c0.21,5.163-93.468,171.416-124.345,187.635C1092.57,813.681,1118.285,671.635,1140.973,570.202"/>
<rect x="187.484" y="75.843" fill="none" width="1059.75" height="781.686"/>
<rect x="187.424" y="75.529" fill="none" width="1060" height="782"/>
<g>
	<path fill="#E33B26" d="M283.144,565.511c0,0-137.214-4.942-161.62-140.761l57.596-25.427c0,0-13.912,96.957,106.615,110.022
		L283.144,565.511"/>
	<path fill="#E33B26" d="M127.552,333.083c0,0-24.965-49.774-65.807-113.261C18.721,241.035-2.671,299.05,13.482,357.484
		c17.846,64.558,74.749,105.16,127.097,90.69s80.318-78.535,62.471-143.092c-7.909-28.618-23.501-52.519-42.963-69.011
		C150.611,287.113,127.552,333.083,127.552,333.083"/>
</g>
<rect x="187.484" y="75.843" fill="none" width="1059.75" height="781.686"/>
<g>
	<path fill="#E33B26" d="M1148.012,565.511c0,0,137.214-4.942,161.62-140.761l-57.596-25.428c0,0,13.912,96.957-106.615,110.022
		L1148.012,565.511"/>
	<path fill="#E33B26" d="M1303.604,333.083c0,0,24.966-49.774,65.808-113.261c43.023,21.212,64.416,79.228,48.262,137.662
		c-17.846,64.558-74.748,105.16-127.096,90.689c-52.348-14.47-80.318-78.534-62.472-143.091
		c7.909-28.618,23.501-52.519,42.964-69.011C1280.544,287.113,1303.604,333.083,1303.604,333.083"/>
</g>
<path d="M807.895,626.942c-7.131-58.735-72.193-61.431-72.193-61.431c-50.936,11.227-59.183,47.369-57.392,75.104L807.895,626.942z"
	/>
</svg>
